<svg width="90" height="62" viewBox="0 0 90 62" fill="none" xmlns="http://www.w3.org/2000/svg">
<g clip-path="url(#clip0_97_112)">
<path d="M54.4716 12.2047L66.9675 34.0512L79.4756 55.8976H29.4675L35.0199 46.1949L41.9756 34.0512L54.4716 12.2047ZM54.4716 0L36.7256 31L29.7699 43.1437L22.5119 55.8366L18.9917 62H89.9514L72.2055 31L54.4716 0Z" fill="#209F6A"/>
<path d="M29.577 43.3269H36.7745L29.577 55.8977H22.3794L29.577 43.3269Z" fill="#CAEEEB"/>
<path d="M3.27606 54.3235C2.74637 54.3235 2.31102 54.2546 1.96999 54.1167C1.62896 53.9789 1.36049 53.812 1.16458 53.6161C0.968668 53.4202 0.827177 53.2243 0.740106 53.0284C0.66029 52.8397 0.616755 52.691 0.609499 52.5821C0.602243 52.5096 0.624011 52.4442 0.674802 52.3862C0.73285 52.3354 0.798153 52.31 0.870712 52.31H1.81761C1.89017 52.31 1.94822 52.3245 1.99175 52.3535C2.03529 52.3898 2.07157 52.4515 2.10059 52.5386C2.14413 52.6329 2.20218 52.7345 2.27474 52.8433C2.3473 52.9522 2.45613 53.0429 2.60125 53.1154C2.75363 53.1952 2.96042 53.2351 3.22164 53.2351C3.49736 53.2351 3.72955 53.1952 3.91821 53.1154C4.10686 53.0356 4.24835 52.9014 4.34268 52.7127C4.44426 52.5241 4.49505 52.2629 4.49505 51.9291V51.189C4.32091 51.3994 4.09598 51.5699 3.82025 51.7005C3.55178 51.8311 3.21801 51.8964 2.81893 51.8964C2.43437 51.8964 2.09697 51.8347 1.80673 51.7114C1.52375 51.5808 1.28793 51.403 1.09927 51.1781C0.91062 50.9459 0.765501 50.6738 0.663918 50.3618C0.569591 50.0498 0.515171 49.7051 0.50066 49.3278C0.493404 49.1319 0.493404 48.936 0.50066 48.7401C0.515171 48.3773 0.569591 48.0399 0.663918 47.7279C0.765501 47.4159 0.91062 47.1438 1.09927 46.9116C1.28793 46.6722 1.52375 46.4871 1.80673 46.3565C2.09697 46.2259 2.43437 46.1606 2.81893 46.1606C3.23252 46.1606 3.5808 46.2404 3.86379 46.4001C4.14677 46.5524 4.37896 46.7447 4.56036 46.9769V46.5415C4.56036 46.4617 4.58575 46.3964 4.63654 46.3456C4.68734 46.2948 4.74901 46.2694 4.82157 46.2694H5.70317C5.77573 46.2694 5.8374 46.2948 5.88819 46.3456C5.93898 46.3964 5.96438 46.4617 5.96438 46.5415L5.97526 51.7876C5.97526 52.31 5.87731 52.7599 5.6814 53.1372C5.48549 53.5145 5.18799 53.8047 4.78892 54.0079C4.3971 54.2183 3.89281 54.3235 3.27606 54.3235ZM3.22164 50.7427C3.51913 50.7427 3.75858 50.6774 3.93997 50.5468C4.12137 50.4162 4.25561 50.2457 4.34268 50.0353C4.42975 49.8249 4.48054 49.6108 4.49505 49.3931C4.50231 49.2988 4.50594 49.1791 4.50594 49.034C4.50594 48.8888 4.50231 48.7727 4.49505 48.6857C4.48054 48.4607 4.42975 48.2467 4.34268 48.0435C4.25561 47.8331 4.12137 47.6626 3.93997 47.532C3.75858 47.3941 3.51913 47.3252 3.22164 47.3252C2.92414 47.3252 2.6847 47.3941 2.5033 47.532C2.3219 47.6626 2.19129 47.8367 2.11148 48.0544C2.03892 48.2721 1.99538 48.5115 1.98087 48.7727C1.96636 48.9469 1.96636 49.1247 1.98087 49.3061C1.99538 49.56 2.03892 49.7995 2.11148 50.0244C2.19129 50.2421 2.3219 50.4162 2.5033 50.5468C2.6847 50.6774 2.92414 50.7427 3.22164 50.7427ZM9.86311 52.0379C9.0577 52.0379 8.41918 51.8057 7.94755 51.3413C7.47591 50.877 7.22195 50.2167 7.18567 49.3605C7.17842 49.2879 7.17479 49.1972 7.17479 49.0884C7.17479 48.9723 7.17842 48.8816 7.18567 48.8163C7.2147 48.2648 7.33805 47.7932 7.55573 47.4014C7.78066 47.0023 8.08904 46.6975 8.48086 46.4871C8.87268 46.2694 9.33343 46.1606 9.86311 46.1606C10.4508 46.1606 10.9442 46.284 11.3433 46.5307C11.7424 46.7701 12.0435 47.1075 12.2467 47.5429C12.4499 47.971 12.5514 48.468 12.5514 49.034V49.2625C12.5514 49.3351 12.526 49.3968 12.4753 49.4475C12.4245 49.4983 12.3592 49.5237 12.2793 49.5237H8.66588C8.66588 49.5237 8.66588 49.5346 8.66588 49.5564C8.66588 49.5782 8.66588 49.5963 8.66588 49.6108C8.67314 49.8648 8.7203 50.1006 8.80737 50.3183C8.9017 50.5287 9.03594 50.6992 9.21008 50.8298C9.39148 50.9604 9.60553 51.0257 9.85223 51.0257C10.0554 51.0257 10.2259 50.9967 10.3638 50.9386C10.5016 50.8733 10.6141 50.8008 10.7012 50.721C10.7882 50.6411 10.8499 50.5758 10.8862 50.5251C10.9515 50.438 11.0023 50.3872 11.0386 50.3727C11.0821 50.3509 11.1438 50.34 11.2236 50.34H12.1596C12.2322 50.34 12.2902 50.3618 12.3338 50.4053C12.3846 50.4489 12.4063 50.5033 12.3991 50.5686C12.3918 50.6847 12.3301 50.8262 12.214 50.9931C12.1052 51.1599 11.9456 51.3232 11.7351 51.4828C11.5247 51.6425 11.2599 51.7767 10.9406 51.8855C10.6286 51.9871 10.2694 52.0379 9.86311 52.0379ZM8.66588 48.6095H11.0712V48.5768C11.0712 48.2939 11.0241 48.0472 10.9297 47.8367C10.8354 47.6191 10.6975 47.4522 10.5161 47.3361C10.3347 47.2127 10.1171 47.151 9.86311 47.151C9.60916 47.151 9.39148 47.2127 9.21008 47.3361C9.02868 47.4522 8.89082 47.6191 8.79649 47.8367C8.70942 48.0472 8.66588 48.2939 8.66588 48.5768V48.6095ZM16.2432 51.9291C15.8079 51.9291 15.4414 51.8529 15.1439 51.7005C14.8464 51.5481 14.6251 51.3232 14.48 51.0257C14.3349 50.721 14.2623 50.3437 14.2623 49.8938V47.4231H13.4025C13.3299 47.4231 13.2683 47.3977 13.2175 47.347C13.1667 47.2962 13.1413 47.2309 13.1413 47.151V46.5307C13.1413 46.4581 13.1667 46.3964 13.2175 46.3456C13.2683 46.2948 13.3299 46.2694 13.4025 46.2694H14.2623V44.4627C14.2623 44.3902 14.2841 44.3285 14.3276 44.2777C14.3784 44.2269 14.4437 44.2015 14.5236 44.2015H15.4051C15.4777 44.2015 15.5394 44.2269 15.5902 44.2777C15.641 44.3285 15.6664 44.3902 15.6664 44.4627V46.2694H17.0268C17.0994 46.2694 17.1611 46.2948 17.2119 46.3456C17.2627 46.3964 17.2881 46.4581 17.2881 46.5307V47.151C17.2881 47.2309 17.2627 47.2962 17.2119 47.347C17.1611 47.3977 17.0994 47.4231 17.0268 47.4231H15.6664V49.7849C15.6664 50.0824 15.7172 50.3146 15.8187 50.4815C15.9276 50.6484 16.1126 50.7318 16.3738 50.7318H17.1248C17.1974 50.7318 17.259 50.7572 17.3098 50.808C17.3606 50.8588 17.386 50.9205 17.386 50.9931V51.6679C17.386 51.7404 17.3606 51.8021 17.3098 51.8529C17.259 51.9037 17.1974 51.9291 17.1248 51.9291H16.2432ZM20.8004 52.0379C20.278 52.0379 19.8172 51.94 19.4182 51.7441C19.0263 51.5481 18.718 51.2652 18.493 50.8951C18.2754 50.5178 18.1556 50.0643 18.1339 49.5346C18.1266 49.4258 18.123 49.2843 18.123 49.1101C18.123 48.9287 18.1266 48.78 18.1339 48.6639C18.1556 48.1342 18.2754 47.6844 18.493 47.3143C18.718 46.937 19.0263 46.6504 19.4182 46.4545C19.8172 46.2586 20.278 46.1606 20.8004 46.1606C21.2648 46.1606 21.6602 46.2259 21.9868 46.3565C22.3133 46.4799 22.5818 46.6431 22.7922 46.8463C23.0026 47.0422 23.1586 47.249 23.2602 47.4667C23.369 47.6771 23.4271 47.8694 23.4343 48.0435C23.4416 48.1233 23.4162 48.1886 23.3581 48.2394C23.3073 48.283 23.2457 48.3047 23.1731 48.3047H22.2153C22.1428 48.3047 22.0847 48.2866 22.0412 48.2503C22.0049 48.214 21.9686 48.1596 21.9323 48.0871C21.8235 47.7968 21.6784 47.5937 21.497 47.4776C21.3228 47.3542 21.0979 47.2925 20.8222 47.2925C20.4594 47.2925 20.1692 47.4086 19.9515 47.6408C19.7411 47.8658 19.6286 48.2249 19.6141 48.7183C19.5996 48.9941 19.5996 49.248 19.6141 49.4802C19.6286 49.9809 19.7411 50.3437 19.9515 50.5686C20.1692 50.7935 20.4594 50.906 20.8222 50.906C21.1052 50.906 21.3337 50.8479 21.5079 50.7318C21.682 50.6085 21.8235 50.4017 21.9323 50.1115C21.9686 50.0389 22.0049 49.9845 22.0412 49.9482C22.0847 49.9119 22.1428 49.8938 22.2153 49.8938H23.1731C23.2457 49.8938 23.3073 49.9192 23.3581 49.97C23.4162 50.0135 23.4416 50.0752 23.4343 50.155C23.4271 50.2856 23.3908 50.4344 23.3255 50.6012C23.2674 50.7609 23.1695 50.9278 23.0316 51.1019C22.901 51.2688 22.7341 51.4248 22.531 51.5699C22.3278 51.7078 22.0811 51.8202 21.7909 51.9073C21.5079 51.9944 21.1777 52.0379 20.8004 52.0379ZM24.8415 51.9291C24.7689 51.9291 24.7073 51.9037 24.6565 51.8529C24.6057 51.8021 24.5803 51.7404 24.5803 51.6679V44.4627C24.5803 44.3902 24.6057 44.3285 24.6565 44.2777C24.7073 44.2269 24.7689 44.2015 24.8415 44.2015H25.8102C25.89 44.2015 25.9516 44.2269 25.9952 44.2777C26.046 44.3285 26.0714 44.3902 26.0714 44.4627V46.9442C26.2673 46.7121 26.5067 46.5234 26.7897 46.3783C27.0727 46.2332 27.421 46.1606 27.8346 46.1606C28.2772 46.1606 28.6617 46.2622 28.9883 46.4654C29.322 46.6613 29.5796 46.9406 29.761 47.3034C29.9424 47.6662 30.0331 48.1016 30.0331 48.6095V51.6679C30.0331 51.7404 30.0077 51.8021 29.9569 51.8529C29.9061 51.9037 29.8445 51.9291 29.7719 51.9291H28.7923C28.7198 51.9291 28.6581 51.9037 28.6073 51.8529C28.5565 51.8021 28.5311 51.7404 28.5311 51.6679V48.6748C28.5311 48.2539 28.4259 47.9238 28.2155 47.6844C28.0123 47.4449 27.7148 47.3252 27.323 47.3252C26.9457 47.3252 26.641 47.4449 26.4088 47.6844C26.1838 47.9238 26.0714 48.2539 26.0714 48.6748V51.6679C26.0714 51.7404 26.046 51.8021 25.9952 51.8529C25.9516 51.9037 25.89 51.9291 25.8102 51.9291H24.8415ZM31.6756 51.9291C31.603 51.9291 31.5413 51.9037 31.4905 51.8529C31.4397 51.8021 31.4143 51.7404 31.4143 51.6679V46.5307C31.4143 46.4581 31.4397 46.3964 31.4905 46.3456C31.5413 46.2948 31.603 46.2694 31.6756 46.2694H32.5789C32.6587 46.2694 32.7204 46.2948 32.764 46.3456C32.8147 46.3964 32.8401 46.4581 32.8401 46.5307V51.6679C32.8401 51.7404 32.8147 51.8021 32.764 51.8529C32.7204 51.9037 32.6587 51.9291 32.5789 51.9291H31.6756ZM31.632 45.3334C31.5595 45.3334 31.4978 45.308 31.447 45.2572C31.3962 45.2065 31.3708 45.1448 31.3708 45.0722V44.2886C31.3708 44.216 31.3962 44.1543 31.447 44.1035C31.4978 44.0528 31.5595 44.0274 31.632 44.0274H32.6225C32.7023 44.0274 32.7676 44.0528 32.8184 44.1035C32.8692 44.1543 32.8946 44.216 32.8946 44.2886V45.0722C32.8946 45.1448 32.8692 45.2065 32.8184 45.2572C32.7676 45.308 32.7023 45.3334 32.6225 45.3334H31.632ZM34.5453 51.9291C34.4728 51.9291 34.4111 51.9037 34.3603 51.8529C34.3095 51.8021 34.2841 51.7404 34.2841 51.6679V46.5307C34.2841 46.4581 34.3095 46.3964 34.3603 46.3456C34.4111 46.2948 34.4728 46.2694 34.5453 46.2694H35.4378C35.5104 46.2694 35.5721 46.2948 35.6229 46.3456C35.6736 46.3964 35.699 46.4581 35.699 46.5307V46.9769C35.8877 46.7447 36.1271 46.5524 36.4174 46.4001C36.7149 46.2404 37.0813 46.1606 37.5166 46.1606C37.9593 46.1606 38.3438 46.2622 38.6703 46.4654C38.9969 46.6613 39.2472 46.9406 39.4213 47.3034C39.6027 47.6662 39.6934 48.1016 39.6934 48.6095V51.6679C39.6934 51.7404 39.668 51.8021 39.6172 51.8529C39.5665 51.9037 39.5048 51.9291 39.4322 51.9291H38.4744C38.4019 51.9291 38.3402 51.9037 38.2894 51.8529C38.2386 51.8021 38.2132 51.7404 38.2132 51.6679V48.6748C38.2132 48.2539 38.108 47.9238 37.8976 47.6844C37.6944 47.4449 37.3969 47.3252 37.0051 47.3252C36.6278 47.3252 36.3267 47.4449 36.1017 47.6844C35.8768 47.9238 35.7643 48.2539 35.7643 48.6748V51.6679C35.7643 51.7404 35.7389 51.8021 35.6882 51.8529C35.6374 51.9037 35.5757 51.9291 35.5031 51.9291H34.5453ZM42.7194 52.0379C42.3421 52.0379 42.0011 51.9654 41.6963 51.8202C41.3916 51.6679 41.1485 51.4683 40.9671 51.2216C40.793 50.9677 40.7059 50.6847 40.7059 50.3727C40.7059 49.8648 40.9127 49.4621 41.3263 49.1646C41.7399 48.8598 42.2804 48.6566 42.948 48.5551L44.4391 48.3374V48.1088C44.4391 47.8041 44.3629 47.5683 44.2105 47.4014C44.0581 47.2345 43.7969 47.151 43.4269 47.151C43.1656 47.151 42.9516 47.2055 42.7847 47.3143C42.6251 47.4159 42.5054 47.5537 42.4255 47.7279C42.3675 47.8222 42.2841 47.8694 42.1752 47.8694H41.3154C41.2356 47.8694 41.1739 47.8476 41.1304 47.8041C41.0941 47.7605 41.0759 47.7025 41.0759 47.6299C41.0832 47.5138 41.1304 47.3723 41.2174 47.2055C41.3118 47.0386 41.4496 46.8789 41.631 46.7266C41.8197 46.5669 42.0627 46.4327 42.3602 46.3239C42.6577 46.215 43.0169 46.1606 43.4377 46.1606C43.8949 46.1606 44.2794 46.2187 44.5914 46.3348C44.9107 46.4436 45.1647 46.5923 45.3533 46.781C45.542 46.9696 45.6798 47.191 45.7669 47.4449C45.854 47.6989 45.8975 47.9673 45.8975 48.2503V51.6679C45.8975 51.7404 45.8721 51.8021 45.8213 51.8529C45.7705 51.9037 45.7089 51.9291 45.6363 51.9291H44.7547C44.6749 51.9291 44.6096 51.9037 44.5588 51.8529C44.5153 51.8021 44.4935 51.7404 44.4935 51.6679V51.2434C44.3992 51.374 44.2722 51.501 44.1125 51.6243C43.9529 51.7477 43.757 51.8493 43.5248 51.9291C43.2999 52.0016 43.0314 52.0379 42.7194 52.0379ZM43.0895 51.0039C43.3434 51.0039 43.572 50.9495 43.7751 50.8407C43.9856 50.7318 44.1488 50.565 44.2649 50.34C44.3883 50.1078 44.4499 49.8176 44.4499 49.4693V49.2408L43.3616 49.4149C42.9335 49.4802 42.6142 49.5854 42.4038 49.7305C42.1934 49.8756 42.0881 50.0534 42.0881 50.2638C42.0881 50.4235 42.1353 50.5613 42.2296 50.6774C42.3312 50.7863 42.4582 50.8697 42.6106 50.9278C42.7629 50.9785 42.9226 51.0039 43.0895 51.0039ZM47.4897 51.9291C47.4171 51.9291 47.3555 51.9037 47.3047 51.8529C47.2539 51.8021 47.2285 51.7404 47.2285 51.6679V50.5904C47.2285 50.5105 47.2539 50.4452 47.3047 50.3944C47.3555 50.3437 47.4171 50.3183 47.4897 50.3183H48.5781C48.6507 50.3183 48.7123 50.3437 48.7631 50.3944C48.8139 50.4452 48.8393 50.5105 48.8393 50.5904V51.6679C48.8393 51.7404 48.8139 51.8021 48.7631 51.8529C48.7123 51.9037 48.6507 51.9291 48.5781 51.9291H47.4897ZM52.635 52.0379C52.0545 52.0379 51.5647 51.9363 51.1657 51.7332C50.7738 51.53 50.4727 51.2434 50.2623 50.8733C50.0591 50.5033 49.943 50.0716 49.914 49.5782C49.9068 49.4475 49.9031 49.2879 49.9031 49.0993C49.9031 48.9106 49.9068 48.751 49.914 48.6204C49.943 48.1197 50.0628 47.688 50.2732 47.3252C50.4909 46.9551 50.7956 46.6685 51.1874 46.4654C51.5865 46.2622 52.069 46.1606 52.635 46.1606C53.201 46.1606 53.6798 46.2622 54.0717 46.4654C54.4707 46.6685 54.7755 46.9551 54.9859 47.3252C55.2036 47.688 55.3269 48.1197 55.356 48.6204C55.3632 48.751 55.3668 48.9106 55.3668 49.0993C55.3668 49.2879 55.3632 49.4475 55.356 49.5782C55.3269 50.0716 55.2072 50.5033 54.9968 50.8733C54.7936 51.2434 54.4925 51.53 54.0934 51.7332C53.7016 51.9363 53.2155 52.0379 52.635 52.0379ZM52.635 50.9604C53.0196 50.9604 53.317 50.8407 53.5275 50.6012C53.7379 50.3545 53.854 49.9954 53.8758 49.5237C53.883 49.4149 53.8866 49.2734 53.8866 49.0993C53.8866 48.9251 53.883 48.7836 53.8758 48.6748C53.854 48.2032 53.7379 47.8476 53.5275 47.6082C53.317 47.3615 53.0196 47.2381 52.635 47.2381C52.2504 47.2381 51.9529 47.3615 51.7425 47.6082C51.5321 47.8476 51.416 48.2032 51.3942 48.6748C51.387 48.7836 51.3833 48.9251 51.3833 49.0993C51.3833 49.2734 51.387 49.4149 51.3942 49.5237C51.416 49.9954 51.5321 50.3545 51.7425 50.6012C51.9529 50.8407 52.2504 50.9604 52.635 50.9604ZM56.834 51.9291C56.7614 51.9291 56.6997 51.9037 56.6489 51.8529C56.5981 51.8021 56.5727 51.7404 56.5727 51.6679V46.5415C56.5727 46.4617 56.5981 46.3964 56.6489 46.3456C56.6997 46.2948 56.7614 46.2694 56.834 46.2694H57.7156C57.7881 46.2694 57.8498 46.2948 57.9006 46.3456C57.9586 46.3964 57.9877 46.4617 57.9877 46.5415V46.9878C58.1545 46.7556 58.3686 46.5778 58.6298 46.4545C58.8983 46.3311 59.2067 46.2694 59.5549 46.2694H60.0012C60.081 46.2694 60.1427 46.2948 60.1862 46.3456C60.237 46.3964 60.2624 46.4581 60.2624 46.5307V47.3143C60.2624 47.3869 60.237 47.4485 60.1862 47.4993C60.1427 47.5501 60.081 47.5755 60.0012 47.5755H59.1522C58.804 47.5755 58.5319 47.6735 58.3359 47.8694C58.1473 48.058 58.053 48.3265 58.053 48.6748V51.6679C58.053 51.7404 58.0276 51.8021 57.9768 51.8529C57.926 51.9037 57.8607 51.9291 57.7809 51.9291H56.834ZM63.5839 54.3235C63.0543 54.3235 62.6189 54.2546 62.2779 54.1167C61.9368 53.9789 61.6684 53.812 61.4725 53.6161C61.2766 53.4202 61.1351 53.2243 61.048 53.0284C60.9682 52.8397 60.9246 52.691 60.9174 52.5821C60.9101 52.5096 60.9319 52.4442 60.9827 52.3862C61.0407 52.3354 61.106 52.31 61.1786 52.31H62.1255C62.1981 52.31 62.2561 52.3245 62.2996 52.3535C62.3432 52.3898 62.3795 52.4515 62.4085 52.5386C62.452 52.6329 62.5101 52.7345 62.5826 52.8433C62.6552 52.9522 62.764 53.0429 62.9091 53.1154C63.0615 53.1952 63.2683 53.2351 63.5295 53.2351C63.8052 53.2351 64.0374 53.1952 64.2261 53.1154C64.4147 53.0356 64.5562 52.9014 64.6506 52.7127C64.7521 52.5241 64.8029 52.2629 64.8029 51.9291V51.189C64.6288 51.3994 64.4039 51.5699 64.1281 51.7005C63.8597 51.8311 63.5259 51.8964 63.1268 51.8964C62.7423 51.8964 62.4048 51.8347 62.1146 51.7114C61.8316 51.5808 61.5958 51.403 61.4072 51.1781C61.2185 50.9459 61.0734 50.6738 60.9718 50.3618C60.8775 50.0498 60.8231 49.7051 60.8085 49.3278C60.8013 49.1319 60.8013 48.936 60.8085 48.7401C60.8231 48.3773 60.8775 48.0399 60.9718 47.7279C61.0734 47.4159 61.2185 47.1438 61.4072 46.9116C61.5958 46.6722 61.8316 46.4871 62.1146 46.3565C62.4048 46.2259 62.7423 46.1606 63.1268 46.1606C63.5404 46.1606 63.8887 46.2404 64.1717 46.4001C64.4547 46.5524 64.6868 46.7447 64.8682 46.9769V46.5415C64.8682 46.4617 64.8936 46.3964 64.9444 46.3456C64.9952 46.2948 65.0569 46.2694 65.1295 46.2694H66.0111C66.0836 46.2694 66.1453 46.2948 66.1961 46.3456C66.2469 46.3964 66.2723 46.4617 66.2723 46.5415L66.2831 51.7876C66.2831 52.31 66.1852 52.7599 65.9893 53.1372C65.7934 53.5145 65.4959 53.8047 65.0968 54.0079C64.705 54.2183 64.2007 54.3235 63.5839 54.3235ZM63.5295 50.7427C63.827 50.7427 64.0665 50.6774 64.2479 50.5468C64.4293 50.4162 64.5635 50.2457 64.6506 50.0353C64.7376 49.8249 64.7884 49.6108 64.8029 49.3931C64.8102 49.2988 64.8138 49.1791 64.8138 49.034C64.8138 48.8888 64.8102 48.7727 64.8029 48.6857C64.7884 48.4607 64.7376 48.2467 64.6506 48.0435C64.5635 47.8331 64.4293 47.6626 64.2479 47.532C64.0665 47.3941 63.827 47.3252 63.5295 47.3252C63.232 47.3252 62.9926 47.3941 62.8112 47.532C62.6298 47.6626 62.4992 47.8367 62.4194 48.0544C62.3468 48.2721 62.3033 48.5115 62.2888 48.7727C62.2742 48.9469 62.2742 49.1247 62.2888 49.3061C62.3033 49.56 62.3468 49.7995 62.4194 50.0244C62.4992 50.2421 62.6298 50.4162 62.8112 50.5468C62.9926 50.6774 63.232 50.7427 63.5295 50.7427Z" fill="black"/>
</g>
<defs>
<clipPath id="clip0_97_112">
<rect width="90" height="62" fill="white"/>
</clipPath>
</defs>
</svg>
