<svg width="42" height="42" viewBox="0 0 42 42" fill="none" xmlns="http://www.w3.org/2000/svg">
<path d="M40.6298 27.995C32.6517 25.5933 28.0138 24.1616 26.7165 23.7C27.8998 21.6666 28.8498 19.3333 29.4665 16.7833H22.6665V14.4833H30.9998V13.0666H22.6665V9.21663H19.4665C18.8832 9.21663 18.8165 9.73329 18.8165 9.73329V13.05H10.9998V14.4666H18.8165V16.7666H12.4165V18.05H25.3832C24.9165 19.6666 24.2832 21.2 23.5332 22.5833C20.5998 21.6166 18.9665 20.95 15.3832 20.6166C8.59984 19.9666 7.03317 23.7 6.78317 25.9833C6.4165 29.4666 9.49984 32.3 14.0998 32.3C18.6998 32.3 21.7665 30.1666 24.6832 26.6333C27.1136 27.7956 31.6371 29.811 38.2538 32.6795C34.5071 38.2035 28.1773 41.8333 20.9998 41.8333C9.4939 41.8333 0.166504 32.5058 0.166504 21C0.166504 9.49402 9.4939 0.166626 20.9998 0.166626C32.5057 0.166626 41.8332 9.49402 41.8332 21C41.8332 23.4537 41.409 25.8085 40.6298 27.995ZM13.5665 30.1C8.69984 30.1 7.93317 27.0166 8.18317 25.7333C8.43317 24.45 9.84984 22.7833 12.5665 22.7833C15.6832 22.7833 18.4665 23.5833 21.8165 25.2C19.4498 28.2833 16.5665 30.1 13.5665 30.1Z" fill="#9BB4B2"/>
</svg>
