<svg width="42" height="38" viewBox="0 0 42 38" fill="none" xmlns="http://www.w3.org/2000/svg">
<path d="M7.37059 30.8848C2.99815 27.7438 0.168945 23.0002 0.168945 17.808C0.168945 8.25664 9.49249 0.500244 21.0023 0.500244C32.5121 0.500244 41.8357 8.25664 41.8357 17.808C41.8357 27.3592 32.5121 35.1157 21.0023 35.1157C18.6232 35.1157 16.3083 34.795 14.1864 34.154C13.9935 34.09 13.7363 34.09 13.5434 34.09C13.1576 34.09 12.7718 34.2182 12.4503 34.4105L7.88499 37.0388C7.75638 37.1027 7.62778 37.1669 7.49919 37.1669C7.11338 37.1669 6.79188 36.8465 6.79188 36.4617C6.79188 36.2694 6.85617 36.1413 6.92049 35.949C6.98478 35.8848 7.56349 33.7694 7.88499 32.4873C7.88499 32.3592 7.94928 32.1669 7.94928 32.0388C7.94928 31.5259 7.75638 31.1413 7.37059 30.8848ZM14.0578 14.899C15.5522 14.899 16.7352 13.7153 16.7352 12.2202C16.7352 10.725 15.5522 9.54133 14.0578 9.54133C12.5635 9.54133 11.3804 10.725 11.3804 12.2202C11.3804 13.7153 12.5635 14.899 14.0578 14.899ZM27.9467 14.899C29.4411 14.899 30.624 13.7153 30.624 12.2202C30.624 10.725 29.4411 9.54133 27.9467 9.54133C26.4523 9.54133 25.2694 10.725 25.2694 12.2202C25.2694 13.7153 26.4523 14.899 27.9467 14.899Z" fill="#9BB4B2"/>
</svg>
