<svg width="59" height="60" viewBox="0 0 59 60" fill="none" xmlns="http://www.w3.org/2000/svg">
<path d="M15.7656 55.7372L0.333008 59.1666L3.76245 43.7339C1.57387 39.6412 0.333008 34.9655 0.333008 29.9999C0.333008 13.8916 13.3914 0.833252 29.4997 0.833252C45.6078 0.833252 58.6663 13.8916 58.6663 29.9999C58.6663 46.1081 45.6078 59.1666 29.4997 59.1666C24.534 59.1666 19.8583 57.9258 15.7656 55.7372ZM14.9163 29.9999C14.9163 38.054 21.4455 44.5832 29.4997 44.5832C37.5538 44.5832 44.083 38.054 44.083 29.9999H38.2497C38.2497 34.8325 34.3323 38.7499 29.4997 38.7499C24.667 38.7499 20.7497 34.8325 20.7497 29.9999H14.9163Z" fill="#9BB4B2"/>
</svg>
