<svg width="30" height="24" viewBox="0 0 30 24" fill="none" xmlns="http://www.w3.org/2000/svg">
<path d="M25.3465 2.561C23.4071 1.67398 21.3474 1.02751 19.1974 0.666687C18.9269 1.13276 18.6261 1.76419 18.4156 2.26032C16.1289 1.92956 13.8587 1.92956 11.6036 2.26032C11.3931 1.76419 11.0774 1.13276 10.8218 0.666687C8.65689 1.02751 6.5972 1.67398 4.67129 2.561C0.777416 8.30409 -0.274983 13.9118 0.251223 19.4445C2.83711 21.3238 5.33283 22.4664 7.78493 23.2182C8.3863 22.4063 8.92754 21.5342 9.39361 20.6172C8.50658 20.2864 7.66465 19.8805 6.8528 19.3994C7.06329 19.2491 7.27378 19.0838 7.46922 18.9183C12.3704 21.1585 17.6791 21.1585 22.5199 18.9183C22.7305 19.0838 22.926 19.2491 23.1365 19.3994C22.3246 19.8805 21.4827 20.2864 20.5957 20.6172C21.0618 21.5342 21.6029 22.4063 22.2043 23.2182C24.6549 22.4664 27.1656 21.3238 29.738 19.4445C30.3844 13.04 28.7142 7.47727 25.3465 2.561ZM10.0701 16.0317C8.59676 16.0317 7.39401 14.6937 7.39401 13.055C7.39401 11.4162 8.56669 10.0782 10.0701 10.0782C11.5585 10.0782 12.7763 11.4162 12.7462 13.055C12.7462 14.6937 11.5585 16.0317 10.0701 16.0317ZM19.9493 16.0317C18.4758 16.0317 17.2715 14.6937 17.2715 13.055C17.2715 11.4162 18.4458 10.0782 19.9493 10.0782C21.4376 10.0782 22.6554 11.4162 22.6252 13.055C22.6252 14.6937 21.4526 16.0317 19.9493 16.0317Z" fill="#209F6A"/>
</svg>
