<svg width="36" height="42" viewBox="0 0 36 42" fill="none" xmlns="http://www.w3.org/2000/svg">
<path d="M34.4875 26.2687C34.1119 25.0729 33.5996 23.6783 33.0804 22.3395L31.1852 17.6602C31.1867 17.6062 31.2102 16.6845 31.2102 16.2094C31.2102 8.20808 27.3923 0.167397 18.0021 0.166626C8.6128 0.167397 4.79426 8.20808 4.79426 16.2094C4.79426 16.6845 4.81768 17.6062 4.81924 17.6602L2.9248 22.3395C2.40551 23.6783 1.89247 25.0729 1.51687 26.2687C-0.273718 31.9702 0.306491 34.3295 0.74847 34.3829C1.69647 34.4956 4.43818 30.0906 4.43818 30.0906C4.43818 32.6414 5.76568 35.9704 8.63857 38.3745C7.56407 38.7022 6.24749 39.2058 5.40101 39.8239C4.64043 40.3802 4.7357 40.9464 4.87234 41.1752C5.47441 42.1793 15.1965 41.8162 18.0038 41.5035C20.8102 41.8162 30.5332 42.1793 31.1344 41.1752C31.2719 40.9464 31.3663 40.3802 30.6059 39.8239C29.7592 39.2058 28.4419 38.7023 27.3667 38.3739C30.2388 35.9704 31.5663 32.6414 31.5663 30.0906C31.5663 30.0906 34.3088 34.4956 35.2567 34.3829C35.6979 34.3295 36.2782 31.9702 34.4875 26.2687Z" fill="#9BB4B2"/>
</svg>
