<svg width="34" height="34" viewBox="0 0 34 34" fill="none" xmlns="http://www.w3.org/2000/svg">
<path d="M29.3387 5.17718C29.3387 5.17718 32.0908 4.10406 31.8614 6.71022C31.785 7.78336 31.097 11.5393 30.5618 15.6019L28.7271 27.6362C28.7271 27.6362 28.5742 29.3992 27.1982 29.7058C25.8221 30.0124 23.7581 28.6327 23.3758 28.3261C23.07 28.0962 17.6423 24.6468 15.7311 22.9605C15.1959 22.5005 14.5844 21.5807 15.8075 20.5076L23.8345 12.8424C24.7519 11.9226 25.6692 9.77632 21.8468 12.3825L11.1443 19.6644C11.1443 19.6644 9.92113 20.4309 7.62776 19.7411L2.65867 18.208C2.65867 18.208 0.823941 17.0583 3.95827 15.9084C11.603 12.3058 21.006 8.62649 29.3387 5.17718Z" fill="#209F6A"/>
</svg>
