<svg width="156" height="40" viewBox="0 0 156 40" fill="none" xmlns="http://www.w3.org/2000/svg">
<g clip-path="url(#clip0_71_161)">
<path d="M40.9891 14.0832H56.7819V17.1385H50.5731V34.3173H47.1567V17.1385H40.9746V14.082H40.988L40.9891 14.0832ZM56.1077 19.6656H59.0272V22.4938H59.0818C59.1787 22.0938 59.357 21.7079 59.6188 21.3361C60.1787 20.5393 60.9366 19.9216 61.8084 19.5514C62.2512 19.3662 62.7227 19.2692 63.199 19.2656C63.5556 19.2656 63.8186 19.2797 63.9568 19.295C64.0938 19.3091 64.2309 19.3373 64.3824 19.3514V22.4644C64.1588 22.4231 63.934 22.3897 63.7083 22.3644C63.4842 22.3364 63.2587 22.3222 63.033 22.322C62.5093 22.322 62.0146 22.4361 61.5466 22.6514C61.0786 22.8644 60.6785 23.1926 60.3353 23.6079C59.9691 24.0723 59.6887 24.605 59.5085 25.1785C59.3024 25.8067 59.2054 26.5197 59.2054 27.335V34.3032H56.0944V19.6656H56.1077ZM78.6887 34.3185H75.6322V32.2761H75.5765C75.191 33.0197 74.6272 33.6056 73.8694 34.0479C73.1117 34.4903 72.3406 34.7185 71.5562 34.7185C69.6976 34.7185 68.347 34.2479 67.5225 33.2903C66.6957 32.3338 66.2823 30.8914 66.2823 28.9632V19.6667H69.3945V28.6491C69.3945 29.935 69.6285 30.8491 70.111 31.3773C70.579 31.9056 71.2531 32.1773 72.1066 32.1773C72.7674 32.1773 73.3045 32.0773 73.7446 31.862C74.1859 31.6479 74.5436 31.3773 74.8054 31.0197C75.0807 30.6773 75.2734 30.2491 75.3982 29.7632C75.5208 29.2773 75.5765 28.7491 75.5765 28.1785V19.6809H78.6887V34.3185ZM83.9894 29.6209C84.0863 30.562 84.4295 31.2209 85.0223 31.6056C85.6274 31.9773 86.3439 32.1773 87.184 32.1773C87.4737 32.1773 87.8036 32.1479 88.1758 32.1056C88.5468 32.062 88.9045 31.962 89.2221 31.835C89.5519 31.7056 89.8126 31.5056 90.0333 31.2491C90.2405 30.9903 90.3363 30.6632 90.323 30.2491C90.3212 30.0569 90.2811 29.8673 90.2052 29.6925C90.1294 29.5178 90.0196 29.3619 89.8828 29.235C89.6065 28.9644 89.2633 28.7644 88.8354 28.5926C88.3587 28.4183 87.8709 28.2799 87.3757 28.1785C86.8252 28.0644 86.2748 27.935 85.7109 27.8067C85.1429 27.677 84.582 27.5148 84.0306 27.3209C83.5135 27.1459 83.0257 26.8858 82.5854 26.5503C82.1563 26.2341 81.8064 25.8126 81.5658 25.322C81.3051 24.822 81.1803 24.2079 81.1803 23.4656C81.1803 22.6656 81.373 22.0091 81.7452 21.4656C82.1206 20.9266 82.6052 20.4828 83.1637 20.1667C83.7639 19.8317 84.4091 19.5957 85.0769 19.4667C85.7789 19.3385 86.4542 19.2667 87.0871 19.2667C87.817 19.2667 88.5189 19.3526 89.1808 19.5103C89.8216 19.6551 90.4324 19.9209 90.9838 20.295C91.5208 20.6526 91.961 21.1232 92.3198 21.695C92.6775 22.2656 92.8981 22.9656 92.9939 23.7797H89.7447C89.5931 23.0091 89.2622 22.4809 88.7262 22.2232C88.1891 21.9526 87.5696 21.8232 86.881 21.8232C86.6603 21.8232 86.3985 21.8373 86.0965 21.8809C85.8055 21.9217 85.5192 21.9934 85.2418 22.095C84.9883 22.1935 84.7583 22.3493 84.5677 22.5514C84.4752 22.6569 84.4032 22.7806 84.356 22.9155C84.3088 23.0503 84.2872 23.1937 84.2925 23.3373C84.2925 23.7373 84.4295 24.0514 84.6914 24.2938C84.9532 24.5361 85.2976 24.7361 85.7243 24.9079C86.1511 25.0656 86.6336 25.2079 87.184 25.322C87.7345 25.4361 88.2983 25.5644 88.8778 25.6938C89.4416 25.822 89.992 25.9938 90.5436 26.1785C91.0941 26.3644 91.5754 26.622 92.0033 26.9503C92.4301 27.2785 92.7744 27.6785 93.0351 28.1644C93.297 28.6491 93.4352 29.2632 93.4352 29.9773C93.4352 30.8479 93.2424 31.5773 92.8558 32.1914C92.4713 32.7914 91.9755 33.2903 91.3693 33.662C90.7347 34.048 90.0472 34.3274 89.3313 34.4903C88.603 34.6594 87.8596 34.7454 87.1138 34.7467C86.2787 34.7566 85.4459 34.651 84.6368 34.4326C83.8791 34.2185 83.2183 33.9044 82.6678 33.4914C82.1238 33.0741 81.6765 32.5318 81.3597 31.9056C81.0432 31.2773 80.8772 30.5197 80.8504 29.6491H83.9894V29.6209ZM94.2609 19.6679H96.6154V15.2679H99.7276V19.6679H102.536V22.0797H99.7287V29.9067C99.7287 30.2479 99.742 30.535 99.7699 30.7914C99.7966 31.035 99.8657 31.2491 99.9627 31.4197C100.068 31.5989 100.228 31.735 100.416 31.8056C100.623 31.8914 100.884 31.935 101.243 31.935C101.462 31.935 101.683 31.935 101.904 31.9197C102.124 31.9056 102.344 31.8773 102.565 31.8197V34.3185C102.22 34.362 101.876 34.3903 101.559 34.4326C101.226 34.4736 100.89 34.4928 100.554 34.4903C99.7287 34.4903 99.0679 34.4044 98.5709 34.2479C98.0762 34.0903 97.6762 33.8479 97.4009 33.5338C97.1112 33.2197 96.9329 32.8338 96.8226 32.362C96.7153 31.8315 96.6557 31.2915 96.6443 30.7491V22.1067H94.2898V19.6644H94.262L94.2609 19.6679ZM104.738 19.6679H107.686V21.6514H107.742C108.181 20.795 108.787 20.195 109.571 19.8244C110.373 19.448 111.242 19.2578 112.12 19.2667C113.234 19.2667 114.198 19.4667 115.024 19.8809C115.85 20.2809 116.539 20.8385 117.089 21.5514C117.64 22.2656 118.04 23.0938 118.315 24.0373C118.595 25.0188 118.735 26.0392 118.728 27.0644C118.728 28.0491 118.605 29.0056 118.356 29.9209C118.128 30.8037 117.75 31.6356 117.241 32.3761C116.74 33.0901 116.09 33.6719 115.341 34.0761C114.57 34.5044 113.675 34.7185 112.629 34.7185C112.171 34.718 111.715 34.6747 111.265 34.5891C110.816 34.5037 110.377 34.3651 109.958 34.1761C109.541 33.9925 109.151 33.7469 108.8 33.4467C108.454 33.1549 108.152 32.8085 107.905 32.4197H107.85V39.7314H104.738V19.6656V19.6679ZM115.616 27.0067C115.617 26.3555 115.534 25.7072 115.369 25.0797C115.216 24.4851 114.964 23.9241 114.624 23.4232C114.302 22.9467 113.884 22.5513 113.4 22.2656C112.88 21.9689 112.297 21.8167 111.706 21.8232C110.398 21.8232 109.406 22.2938 108.745 23.2373C108.085 24.1797 107.754 25.4373 107.754 27.0067C107.754 27.7491 107.837 28.435 108.016 29.0632C108.194 29.6914 108.442 30.235 108.8 30.6914C109.145 31.1491 109.558 31.5056 110.04 31.762C110.522 32.0338 111.087 32.162 111.719 32.162C112.436 32.162 113.028 32.0056 113.524 31.7056C114.004 31.4139 114.417 31.0142 114.735 30.535C115.051 30.0491 115.286 29.5056 115.423 28.8926C115.55 28.2729 115.615 27.6408 115.616 27.0067ZM121.11 14.0832H124.222V17.1397H121.11V14.0832ZM121.11 19.6667H124.222V34.3185H121.11V19.6667ZM127.003 14.0832H130.115V34.3185H127.003V14.0832ZM139.657 34.7185C138.527 34.7185 137.522 34.5185 136.642 34.1338C135.798 33.7683 135.034 33.2238 134.397 32.5338C133.779 31.8299 133.305 30.9983 133.006 30.0914C132.678 29.0904 132.515 28.0375 132.524 26.9785C132.524 25.8644 132.689 24.8373 133.006 23.8938C133.305 22.9874 133.779 22.1562 134.397 21.4526C135.002 20.7667 135.76 20.2385 136.642 19.8526C137.522 19.4667 138.527 19.2667 139.657 19.2667C140.786 19.2667 141.791 19.4667 142.672 19.8526C143.554 20.2385 144.297 20.782 144.916 21.4526C145.535 22.1559 146.008 22.9872 146.307 23.8938C146.623 24.8361 146.788 25.8644 146.788 26.9785C146.788 28.1079 146.623 29.1491 146.307 30.0914C146.009 30.9985 145.535 31.8302 144.916 32.5338C144.31 33.2197 143.554 33.7479 142.672 34.1338C141.791 34.5185 140.786 34.7185 139.657 34.7185ZM139.657 32.162C140.345 32.162 140.951 32.0056 141.46 31.7056C141.956 31.4139 142.384 31.0087 142.713 30.5197C143.043 30.035 143.277 29.4773 143.443 28.8632C143.595 28.2491 143.677 27.6209 143.677 26.9785C143.677 26.3503 143.595 25.7361 143.443 25.1079C143.301 24.512 143.054 23.9499 142.713 23.4514C142.384 22.9671 141.955 22.5671 141.46 22.2809C140.951 21.9809 140.345 21.8232 139.657 21.8232C138.968 21.8232 138.362 21.9809 137.853 22.2809C137.36 22.5714 136.933 22.9707 136.6 23.4514C136.265 23.9529 136.018 24.514 135.871 25.1079C135.718 25.7185 135.639 26.347 135.635 26.9785C135.635 27.6209 135.719 28.2491 135.871 28.8632C136.022 29.4773 136.269 30.035 136.6 30.5197C136.93 31.0056 137.344 31.4056 137.853 31.7056C138.362 32.0197 138.968 32.162 139.657 32.162ZM147.698 19.6679H150.052V15.2679H153.164V19.6679H155.972V22.0797H153.164V29.9067C153.164 30.2479 153.178 30.535 153.204 30.7914C153.232 31.035 153.301 31.2491 153.398 31.4197C153.503 31.5991 153.663 31.7352 153.852 31.8056C154.059 31.8914 154.32 31.935 154.679 31.935C154.898 31.935 155.119 31.935 155.339 31.9197C155.56 31.9056 155.779 31.8773 156 31.8197V34.3185C155.656 34.362 155.311 34.3903 154.995 34.4326C154.661 34.4735 154.326 34.4928 153.99 34.4903C153.164 34.4903 152.502 34.4044 152.006 34.2479C151.512 34.0903 151.112 33.8479 150.836 33.5338C150.548 33.2197 150.368 32.8338 150.258 32.362C150.151 31.8315 150.091 31.2914 150.08 30.7491V22.1067H147.725V19.6644H147.698V19.6679Z" fill="black"/>
<path d="M37.3542 14.0812H23.0902L18.6843 0L14.2629 14.0824L0 14.0671L11.5518 22.7776L7.13254 36.8435L18.6843 28.1471L30.2228 36.8435L25.8169 22.7776L37.3542 14.0812Z" fill="#04DA8D"/>
<path d="M26.8077 25.964L25.816 22.7793L18.6846 28.1487L26.8077 25.964Z" fill="#126849"/>
</g>
<defs>
<clipPath id="clip0_71_161">
<rect width="156" height="40" fill="white"/>
</clipPath>
</defs>
</svg>
