<svg width="79" height="20" viewBox="0 0 79 20" fill="none" xmlns="http://www.w3.org/2000/svg">
<g clip-path="url(#clip0_71_32)">
<path d="M20.9945 7.04128H28.8909V8.56893H25.7865V17.1583H24.0783V8.56893H20.9873V7.0407H20.994L20.9945 7.04128ZM28.5539 9.83246H30.0136V11.2466H30.0409C30.0893 11.0466 30.1785 10.8536 30.3094 10.6678C30.5894 10.2693 30.9683 9.9605 31.4042 9.7754C31.6256 9.68276 31.8614 9.6343 32.0995 9.63246C32.2778 9.63246 32.4093 9.63952 32.4784 9.64717C32.5469 9.65422 32.6154 9.66834 32.6912 9.6754V11.2319C32.5794 11.2112 32.467 11.1945 32.3541 11.1819C32.2421 11.1679 32.1293 11.1608 32.0165 11.1607C31.7546 11.1607 31.5073 11.2178 31.2733 11.3254C31.0393 11.4319 30.8393 11.596 30.6677 11.8036C30.4846 12.0358 30.3443 12.3022 30.2543 12.5889C30.1512 12.903 30.1027 13.2595 30.1027 13.6672V17.1513H28.5472V9.83246H28.5539ZM39.8444 17.1589H38.3161V16.1378H38.2883C38.0955 16.5095 37.8136 16.8025 37.4347 17.0236C37.0559 17.2448 36.6703 17.3589 36.2781 17.3589C35.3488 17.3589 34.6735 17.1236 34.2612 16.6448C33.8478 16.1666 33.6411 15.4454 33.6411 14.4813V9.83305H35.1972V14.3242C35.1972 14.9672 35.3142 15.4242 35.5555 15.6883C35.7895 15.9525 36.1265 16.0883 36.5533 16.0883C36.8837 16.0883 37.1522 16.0383 37.3723 15.9307C37.5929 15.8236 37.7718 15.6883 37.9027 15.5095C38.0403 15.3383 38.1367 15.1242 38.1991 14.8813C38.2604 14.6383 38.2883 14.3742 38.2883 14.0889V9.84011H39.8444V17.1589ZM42.4947 14.8101C42.5432 15.2807 42.7148 15.6101 43.0112 15.8025C43.3137 15.9883 43.6719 16.0883 44.092 16.0883C44.2369 16.0883 44.4018 16.0736 44.5879 16.0525C44.7734 16.0307 44.9522 15.9807 45.111 15.9172C45.2759 15.8525 45.4063 15.7525 45.5166 15.6242C45.6203 15.4948 45.6682 15.3313 45.6615 15.1242C45.6606 15.0281 45.6405 14.9333 45.6026 14.8459C45.5647 14.7586 45.5098 14.6806 45.4414 14.6172C45.3032 14.4819 45.1316 14.3819 44.9177 14.296C44.6794 14.2088 44.4355 14.1396 44.1878 14.0889C43.9126 14.0319 43.6374 13.9672 43.3555 13.903C43.0715 13.8382 42.791 13.7571 42.5153 13.6601C42.2567 13.5726 42.0129 13.4426 41.7927 13.2748C41.5781 13.1167 41.4032 12.906 41.2829 12.6607C41.1525 12.4107 41.0901 12.1036 41.0901 11.7325C41.0901 11.3325 41.1865 11.0042 41.3726 10.7325C41.5603 10.463 41.8026 10.2411 42.0819 10.083C42.3819 9.91555 42.7045 9.79752 43.0385 9.73305C43.3895 9.66893 43.7271 9.63305 44.0435 9.63305C44.4085 9.63305 44.7595 9.67599 45.0904 9.75481C45.4108 9.82724 45.7162 9.96015 45.9919 10.1472C46.2604 10.326 46.4805 10.5613 46.6599 10.8472C46.8387 11.1325 46.949 11.4825 46.997 11.8895H45.3723C45.2966 11.5042 45.1311 11.2401 44.8631 11.1113C44.5946 10.976 44.2848 10.9113 43.9405 10.9113C43.8302 10.9113 43.6992 10.9183 43.5482 10.9401C43.4028 10.9605 43.2596 10.9964 43.1209 11.0472C42.9942 11.0964 42.8791 11.1743 42.7838 11.2754C42.7376 11.3281 42.7016 11.39 42.678 11.4574C42.6544 11.5248 42.6436 11.5965 42.6462 11.6683C42.6462 11.8683 42.7148 12.0254 42.8457 12.1466C42.9766 12.2678 43.1488 12.3678 43.3622 12.4536C43.5755 12.5325 43.8168 12.6036 44.092 12.6607C44.3672 12.7178 44.6492 12.7819 44.9389 12.8466C45.2208 12.9107 45.496 12.9966 45.7718 13.0889C46.047 13.1819 46.2877 13.3107 46.5017 13.4748C46.715 13.6389 46.8872 13.8389 47.0176 14.0819C47.1485 14.3242 47.2176 14.6313 47.2176 14.9883C47.2176 15.4236 47.1212 15.7883 46.9279 16.0954C46.7357 16.3954 46.4877 16.6448 46.1846 16.8307C45.8674 17.0237 45.5236 17.1634 45.1656 17.2448C44.8015 17.3294 44.4298 17.3724 44.0569 17.373C43.6394 17.378 43.223 17.3252 42.8184 17.216C42.4395 17.1089 42.1091 16.9519 41.8339 16.7454C41.5619 16.5367 41.3383 16.2656 41.1798 15.9525C41.0216 15.6383 40.9386 15.2595 40.9252 14.8242H42.4947V14.8101ZM47.6304 9.83364H48.8077V7.63364H50.3638V9.83364H51.7678V11.0395H50.3643V14.953C50.3643 15.1236 50.371 15.2672 50.3849 15.3954C50.3983 15.5172 50.4329 15.6242 50.4813 15.7095C50.534 15.7991 50.614 15.8672 50.7081 15.9025C50.8117 15.9454 50.9421 15.9672 51.1215 15.9672C51.2312 15.9672 51.3416 15.9672 51.4519 15.9595C51.5622 15.9525 51.6719 15.9383 51.7823 15.9095V17.1589C51.6101 17.1807 51.4379 17.1948 51.2797 17.216C51.1129 17.2365 50.9451 17.2461 50.7772 17.2448C50.3643 17.2448 50.0339 17.2019 49.7855 17.1236C49.5381 17.0448 49.3381 16.9236 49.2005 16.7666C49.0556 16.6095 48.9665 16.4166 48.9113 16.1807C48.8577 15.9154 48.8278 15.6454 48.8222 15.3742V11.053H47.6449V9.83187H47.631L47.6304 9.83364ZM52.8692 9.83364H54.3429V10.8254H54.3708C54.5903 10.3972 54.8933 10.0972 55.2856 9.91187C55.6865 9.72367 56.121 9.62859 56.5598 9.63305C57.1169 9.63305 57.5988 9.73305 58.0122 9.94011C58.4251 10.1401 58.7694 10.4189 59.0446 10.7754C59.3198 11.1325 59.5199 11.5466 59.6575 12.0183C59.7977 12.5091 59.8674 13.0193 59.8642 13.5319C59.8642 14.0242 59.8023 14.5025 59.6781 14.9601C59.564 15.4015 59.375 15.8175 59.1204 16.1878C58.8701 16.5447 58.545 16.8356 58.1705 17.0378C57.7849 17.2519 57.3375 17.3589 56.8144 17.3589C56.5857 17.3587 56.3575 17.337 56.1324 17.2942C55.9079 17.2515 55.6887 17.1823 55.4789 17.0878C55.2705 16.9959 55.0755 16.8731 54.9 16.723C54.7268 16.5772 54.5759 16.4039 54.4526 16.2095H54.4248V19.8654H52.8692V9.83246V9.83364ZM58.3081 13.503C58.3084 13.1774 58.2668 12.8533 58.1844 12.5395C58.1081 12.2422 57.9821 11.9617 57.8122 11.7113C57.6511 11.473 57.442 11.2754 57.1999 11.1325C56.9399 10.9841 56.6485 10.908 56.3531 10.9113C55.699 10.9113 55.2031 11.1466 54.8727 11.6183C54.5424 12.0895 54.3769 12.7183 54.3769 13.503C54.3769 13.8742 54.4187 14.2172 54.5078 14.5313C54.5969 14.8454 54.7212 15.1172 54.9 15.3454C55.0727 15.5742 55.2789 15.7525 55.5201 15.8807C55.7608 16.0166 56.0433 16.0807 56.3597 16.0807C56.718 16.0807 57.0138 16.0025 57.2618 15.8525C57.5019 15.7066 57.7086 15.5068 57.8674 15.2672C58.0256 15.0242 58.1432 14.7525 58.2117 14.446C58.2751 14.1361 58.3074 13.8201 58.3081 13.503ZM61.0548 7.04128H62.6109V8.56952H61.0548V7.04128ZM61.0548 9.83305H62.6109V17.1589H61.0548V9.83305ZM64.0015 7.04128H65.5576V17.1589H64.0015V7.04128ZM70.3284 17.3589C69.7635 17.3589 69.2609 17.2589 68.8208 17.0666C68.3988 16.8839 68.0169 16.6116 67.6987 16.2666C67.3894 15.9146 67.1524 15.4988 67.0028 15.0454C66.8391 14.5449 66.7577 14.0185 66.7622 13.4889C66.7622 12.9319 66.8446 12.4183 67.0028 11.9466C67.1525 11.4934 67.3894 11.0778 67.6987 10.726C68.0012 10.383 68.3801 10.1189 68.8208 9.92599C69.2609 9.73305 69.7635 9.63305 70.3284 9.63305C70.8928 9.63305 71.3954 9.73305 71.8361 9.92599C72.2768 10.1189 72.6484 10.3907 72.9581 10.726C73.2674 11.0776 73.5042 11.4933 73.6535 11.9466C73.8117 12.4178 73.8941 12.9319 73.8941 13.4889C73.8941 14.0536 73.8117 14.5742 73.6535 15.0454C73.5043 15.4989 73.2675 15.9148 72.9581 16.2666C72.6551 16.6095 72.2768 16.8736 71.8361 17.0666C71.3954 17.2589 70.8928 17.3589 70.3284 17.3589ZM70.3284 16.0807C70.6727 16.0807 70.9753 16.0025 71.2299 15.8525C71.4781 15.7066 71.6922 15.504 71.8567 15.2595C72.0216 15.0172 72.1386 14.7383 72.2216 14.4313C72.2974 14.1242 72.3386 13.8101 72.3386 13.4889C72.3386 13.1748 72.2974 12.8678 72.2216 12.5536C72.1507 12.2557 72.0268 11.9746 71.8567 11.7254C71.6919 11.4832 71.4777 11.2832 71.2299 11.1401C70.9753 10.9901 70.6727 10.9113 70.3284 10.9113C69.9841 10.9113 69.681 10.9901 69.4264 11.1401C69.1802 11.2854 68.9666 11.485 68.8002 11.7254C68.6324 11.9761 68.5088 12.2567 68.4353 12.5536C68.359 12.8589 68.3195 13.1732 68.3177 13.4889C68.3177 13.8101 68.3595 14.1242 68.4353 14.4313C68.511 14.7383 68.6347 15.0172 68.8002 15.2595C68.9651 15.5025 69.1718 15.7025 69.4264 15.8525C69.681 16.0095 69.9841 16.0807 70.3284 16.0807ZM74.3488 9.83364H75.526V7.63364H77.0821V9.83364H78.4861V11.0395H77.0821V14.953C77.0821 15.1236 77.0888 15.2672 77.1022 15.3954C77.1161 15.5172 77.1506 15.6242 77.1991 15.7095C77.2517 15.7992 77.3317 15.8673 77.4259 15.9025C77.5295 15.9454 77.6599 15.9672 77.8393 15.9672C77.949 15.9672 78.0593 15.9672 78.1697 15.9595C78.28 15.9525 78.3897 15.9383 78.5 15.9095V17.1589C78.3279 17.1807 78.1557 17.1948 77.9975 17.216C77.8307 17.2365 77.6629 17.2461 77.495 17.2448C77.0821 17.2448 76.7512 17.2019 76.5032 17.1236C76.2559 17.0448 76.0559 16.9236 75.9182 16.7666C75.7739 16.6095 75.6842 16.4166 75.6291 16.1807C75.5755 15.9154 75.5457 15.6454 75.5399 15.3742V11.053H74.3627V9.83187H74.3488V9.83364Z" fill="black"/>
<path d="M19.1771 7.04091H12.0451L9.84217 0.000320435L7.63143 7.0415L0.5 7.03385L6.2759 11.3891L4.06627 18.4221L9.84217 14.0738L15.6114 18.4221L13.4084 11.3891L19.1771 7.04091Z" fill="#04DA8D"/>
<path d="M13.9034 12.982L13.4075 11.3896L9.8418 14.0744L13.9034 12.982Z" fill="#126849"/>
</g>
<defs>
<clipPath id="clip0_71_32">
<rect width="78" height="20" fill="white" transform="translate(0.5)"/>
</clipPath>
</defs>
</svg>
